<svg xmlns="http://www.w3.org/2000/svg" width="141" height="47" fill="none"><path fill="#fff" d="m56.362 32.687-1.156-3.234-1.13 3.234h2.289m-3.158 2.47a.885.885 0 0 0-.043.3h-.677a1.59 1.59 0 0 0 .151-.3l2.342-6.605a1.29 1.29 0 0 0 .055-.257h1.032c.009.08.027.16.055.235l2.416 6.628c.044.107.102.207.173.3h-1.397a.76.76 0 0 0-.055-.3l-.688-1.946h-2.663l-.701 1.945zm6.764.299c.028-.108.042-.218.043-.33v-6.49c0-.115-.015-.23-.043-.342h1.279a1.26 1.26 0 0 0-.043.342v6.243h2.03a.859.859 0 0 0 .364-.055v.633h-3.63m8.647-.313v.045c.01.193.01.193.01.267h-.645c.055-.182.075-.246.097-.33l1.02-6.52v-.31h1.074c.005.093.02.187.043.278l1.912 5.564 1.923-5.596a.487.487 0 0 0 .031-.183v-.064h1.086v.247l.945 6.605c.021.106.05.21.085.312h-1.277a.485.485 0 0 0 .02-.16.59.59 0 0 0-.01-.13l-.75-5.349-1.827 5.327a.897.897 0 0 0-.055.259v.055h-1.01v-.064a.463.463 0 0 0-.042-.204l-1.805-5.24-.825 5.196m14.854-6.855a1.158 1.158 0 0 0-.043.342v4.448c0 1.6-1.031 2.48-2.888 2.48-1.075 0-1.784-.28-2.266-.901a2.385 2.385 0 0 1-.505-1.526v-4.5c0-.116-.015-.232-.044-.343h1.278c-.03.111-.043.227-.042.342v4.522c0 1.15.708 1.827 1.912 1.827 1.29 0 2.02-.71 2.02-1.987v-4.362a1.11 1.11 0 0 0-.043-.342h.62zm1.976 7.162c.028-.108.042-.218.043-.33v-6.49c0-.115-.015-.23-.043-.342h1.28a1.236 1.236 0 0 0-.045.342v6.243h2.03a.875.875 0 0 0 .366-.055v.633h-3.63m5.016-.001a1.41 1.41 0 0 0 .044-.33v-6.49a1.485 1.485 0 0 0-.044-.342h1.28a1.198 1.198 0 0 0-.043.342v6.243h2.029a.862.862 0 0 0 .365-.055v.633h-3.63m8.516-2.77-1.156-3.234-1.129 3.234h2.285zm-3.157 2.47a.86.86 0 0 0-.042.3h-.678c.06-.094.11-.195.15-.3l2.343-6.605c.027-.084.045-.17.055-.257h1.031c.01.08.028.16.056.235l2.416 6.628c.044.106.102.207.172.3h-1.396a.779.779 0 0 0-.055-.3l-.688-1.946h-2.663l-.7 1.945zm15.572-5.692a3.193 3.193 0 0 0-1.944-.677 2.214 2.214 0 0 0-1.698.72 3.362 3.362 0 0 0-.731 2.406c0 1.944.849 3.072 2.321 3.072.39.01.775-.094 1.106-.3v-2.804a1.177 1.177 0 0 0-.045-.344h1.248a1.33 1.33 0 0 0-.043.344v2.759a.907.907 0 0 0 .075.43 6.533 6.533 0 0 1-2.471.495 3.216 3.216 0 0 1-2.469-.891 3.855 3.855 0 0 1-1-2.772c0-2.309 1.386-3.715 3.652-3.715a5.172 5.172 0 0 1 1.999.385v.892zm3.928 2.265a1.369 1.369 0 0 0 1.027-.406 1.354 1.354 0 0 0 .39-1.033 1.57 1.57 0 0 0-.482-1.162 1.405 1.405 0 0 0-.991-.31h-.505v2.912h.561zm-.55 3.384c-.001.115.013.23.042.342h-1.289a1.2 1.2 0 0 0 .043-.343v-6.477a1.467 1.467 0 0 0-.043-.342h2.181c1.331 0 2.244.783 2.244 1.944a1.66 1.66 0 0 1-1.137 1.631 3.666 3.666 0 0 1-.794.215l2.351 3.093a.89.89 0 0 0 .29.28h-1.569a1.204 1.204 0 0 0-.15-.313l-2.169-3.005v2.974zm5.892-3.287c0 2.116.751 3.18 2.266 3.18 1.45 0 2.234-1.096 2.234-3.115 0-2.074-.771-3.148-2.244-3.148-1.473 0-2.257 1.074-2.257 3.082m5.779.043c0 2.374-1.268 3.694-3.545 3.694s-3.511-1.32-3.511-3.759c0-2.276 1.309-3.619 3.534-3.619 2.243.001 3.523 1.344 3.523 3.684h-.001zm7.401-3.575a1.24 1.24 0 0 0-.043.342v4.448c0 1.6-1.029 2.48-2.889 2.48-1.074 0-1.783-.28-2.266-.901a2.393 2.393 0 0 1-.505-1.526v-4.5a1.366 1.366 0 0 0-.042-.343h1.276a1.241 1.241 0 0 0-.044.342v4.522c0 1.15.71 1.827 1.912 1.827 1.289 0 2.019-.71 2.019-1.987v-4.362a1.104 1.104 0 0 0-.043-.342h.623m3.858 3.533c.292.012.581-.054.839-.193a1.511 1.511 0 0 0 .664-1.343 1.334 1.334 0 0 0-1.406-1.472h-.741v3.009h.643m-.643 3.286c.001.117.019.232.055.343h-1.289a1.52 1.52 0 0 0 .043-.343v-6.478c0-.115-.014-.23-.043-.342h2.278c1.449 0 2.319.74 2.319 1.976 0 1.31-.977 2.105-2.599 2.105h-.764v2.74zM82.76 11.429h-1.025v8.915h1.025V11.43zm-9.488 7.815a1.602 1.602 0 0 1-.257-.92V15.39h1.128a1.481 1.481 0 0 1 1.298.62c.175.273.263.594.252.919v2.937l-1.129-.003a1.47 1.47 0 0 1-1.293-.619m6.05.199h-2.603v-2.497a2.099 2.099 0 0 0-.236-.99 1.843 1.843 0 0 0-.66-.72 3.579 3.579 0 0 0-1.67-.322l-2.201-.002v3c0 .363-.085 1.54-1.14 1.54h-8.355c-1.014-.032-1.091-1.177-1.091-1.535v-6.423h-1.032v6.83c0 .363.06 1.537-.997 1.537h-4.158a1.521 1.521 0 0 1-1.295-.619 1.613 1.613 0 0 1-.253-.92v-1.076h-1.025v1.06c-.004.345.077.686.236.993.151.295.38.543.66.719a3.546 3.546 0 0 0 1.67.321H59.3a1.96 1.96 0 0 0 1.57-.619 2.006 2.006 0 0 0 1.542.62h8.358a2.093 2.093 0 0 0 1.694-.697c.12.146.26.273.42.375.522.24 1.095.35 1.669.321l5.79.003v-8.917h-1.025l.002 8.018z"/><path fill="#fff" d="M58.992 11.498h-1.025v7.36h1.025v-7.36zm80.422 8.322h-1.115a1.47 1.47 0 0 1-1.282-.613 1.59 1.59 0 0 1-.248-.91v-2.901h1.115a1.467 1.467 0 0 1 1.281.613c.171.27.258.586.248.906v2.906m-12.307 0h-1.114a1.464 1.464 0 0 1-1.279-.614 1.576 1.576 0 0 1-.251-.91v-2.901h1.117a1.46 1.46 0 0 1 1.28.613c.173.27.26.586.25.906l-.003 2.906zm-15.817-.015h-.826c-1.217-.017-1.823-.184-1.823-1.919a3.372 3.372 0 0 1 .416-1.802 1.56 1.56 0 0 1 1.398-.738h.836l-.001 4.459zm28.905-3.853a1.814 1.814 0 0 0-.652-.711 3.541 3.541 0 0 0-1.651-.32c-.014.002-2.139 0-2.139 0v2.964a1.57 1.57 0 0 1-.272.9 1.467 1.467 0 0 1-1.28.614h-1.352v-2.466a2.076 2.076 0 0 0-.233-.98 1.82 1.82 0 0 0-.651-.713 3.548 3.548 0 0 0-1.652-.32c-.015.004-1.23.004-1.243.006v.47h1.236a1.467 1.467 0 0 1 1.281.613c.173.27.26.585.251.906V19.4h-3.717v-2.466a2.064 2.064 0 0 0-.233-.98 1.831 1.831 0 0 0-.65-.713 3.544 3.544 0 0 0-1.651-.32c-.012.004-2.16 0-2.16 0v2.96c.01.32-.078.636-.251.905a1.471 1.471 0 0 1-1.279.614h-9.592v-4.503l-1.851.003c-1.218.02-2.055.473-2.513 1.36a3.476 3.476 0 0 0-.351 1.617c0 .973.562 2.374 2.844 2.374h.834a1.435 1.435 0 0 1-.225.599 1.47 1.47 0 0 1-1.279.614h-1.239v.471s1.231 0 1.244.003a3.588 3.588 0 0 0 1.652-.32c.275-.175.5-.42.65-.711.099-.194.167-.402.201-.617l9.627.003a3.55 3.55 0 0 0 1.651-.32c.144-.095.275-.207.39-.336.113.13.243.243.388.336a3.575 3.575 0 0 0 1.652.32c.012 0 8.212-.003 8.224 0a3.566 3.566 0 0 0 1.651-.32c.146-.093.278-.206.39-.336.114.13.245.243.39.336a3.577 3.577 0 0 0 1.652.32l1.083-.003v.003h1.052v-3.357a2.084 2.084 0 0 0-.226-.983h-.001zM89.807 19.4h-2.598v-2.485c-.01-.32.078-.636.25-.906a1.486 1.486 0 0 1 1.281-.613h1.067v4.003zm13.021-.195a1.607 1.607 0 0 1-.249-.91v-2.9h1.117a1.459 1.459 0 0 1 1.278.614c.174.269.262.585.252.906v.95h1.012v-.932a2.076 2.076 0 0 0-.233-.98 1.826 1.826 0 0 0-.651-.712 3.548 3.548 0 0 0-1.651-.32c-.012.003-2.137 0-2.137 0v3.358c-.004.342.076.68.233.984.029.048.062.094.098.137H90.819v-4.479h-2.086a3.393 3.393 0 0 0-1.65.32 1.82 1.82 0 0 0-.652.712c-.156.303-.236.64-.233.98v3.357l20.585-.002v-.891h-3.784a1.17 1.17 0 0 1-.171-.192z"/><path fill="#fff" d="M130.866 20.793a.632.632 0 0 0-.588.39.64.64 0 0 0 .136.693.637.637 0 0 0 .977-.095.633.633 0 0 0-.525-.988zm-41.188-6.837a.635.635 0 1 0-.448-.186c.12.119.28.186.449.186m-1.723 0a.636.636 0 1 0 .003-1.271.636.636 0 0 0-.003 1.27z"/><path fill="#00AE42" d="M28.877 38.749c2.297 1.497 4.379 2.746 6.244 3.747a58.863 58.863 0 0 0 6.446-6.48c-.984-1.873-2.223-3.963-3.718-6.27-2.364.497-4.899.962-7.581 1.388-.422 2.693-.89 5.239-1.391 7.615zm-12.727-.002c.573 2.687 1.166 5.061 1.785 7.084 3.046.24 6.106.24 9.152 0 .623-2.023 1.216-4.397 1.789-7.084a148.934 148.934 0 0 1-6.365-4.398 153.264 153.264 0 0 1-6.36 4.398z"/><path fill="#006241" d="M30.167 31.148a10.91 10.91 0 0 1-7.63 3.18c-.008.006-.017.015-.025.02a150.396 150.396 0 0 0 6.364 4.399c.5-2.377.97-4.924 1.391-7.615l-.1.016z"/><path fill="#00AE42" d="M7.178 29.743c-1.492 2.302-2.732 4.392-3.721 6.27a59.483 59.483 0 0 0 6.447 6.48c1.86-.996 3.953-2.25 6.247-3.746a140.381 140.381 0 0 1-1.39-7.615 144.117 144.117 0 0 1-7.584-1.388"/><path fill="#006241" d="M22.488 34.328a10.909 10.909 0 0 1-7.633-3.182c-.032-.005-.062-.008-.093-.014.417 2.693.885 5.239 1.39 7.615 2.027-1.322 4.161-2.8 6.36-4.398-.008-.006-.016-.015-.024-.02z"/><path fill="#00A650" d="M22.487 34.328c.009.005.017.014.025.02l.024-.02h-.049z"/><path fill="#00AE42" d="M7.206 17.057c-2.664.57-5.012 1.177-7.014 1.804a58.572 58.572 0 0 0-.028 9.12c2.002.61 4.346 1.198 7.013 1.762a143.473 143.473 0 0 1 4.386-6.37 150.552 150.552 0 0 1-4.358-6.316"/><path fill="#006241" d="M14.745 31.036a10.9 10.9 0 0 1-3.17-7.64.055.055 0 0 0-.012-.019 144.892 144.892 0 0 0-4.386 6.37c2.36.504 4.9.962 7.585 1.388-.005-.033-.009-.063-.016-.096"/><path fill="#00A650" d="M14.745 31.035c.007.032.01.063.016.096.031.006.062.008.094.014-.037-.036-.073-.071-.11-.11z"/><path fill="#00AE42" d="M16.18 8.112c-2.284-1.466-4.357-2.689-6.2-3.65a58.575 58.575 0 0 0-6.45 6.415c.972 1.838 2.208 3.901 3.673 6.18a133.24 133.24 0 0 1 7.57-1.414c.43-2.67.9-5.19 1.407-7.53"/><path fill="#006241" d="M11.579 23.354a10.9 10.9 0 0 1 3.184-7.613l.016-.099a133.38 133.38 0 0 0-7.57 1.415 148.986 148.986 0 0 0 4.357 6.317.163.163 0 0 0 .014-.02"/><path fill="#00A650" d="M11.577 23.354a.184.184 0 0 1-.014.02c.005.006.01.012.012.019v-.039"/><path fill="#00AE42" d="M28.841 8.112c-.57-2.641-1.163-4.963-1.785-6.944a57.792 57.792 0 0 0-9.087 0c-.622 1.981-1.21 4.302-1.785 6.944a138.51 138.51 0 0 1 6.328 4.333 139.876 139.876 0 0 1 6.33-4.333z"/><path fill="#006241" d="M14.875 15.627a10.924 10.924 0 0 1 7.614-3.17l.023-.014a137.847 137.847 0 0 0-6.329-4.333c-.509 2.34-.977 4.86-1.406 7.53l.099-.016"/><path fill="#00A650" d="m14.876 15.627-.1.016-.014.099.113-.113"/><path fill="#00AE42" d="M37.819 17.058c1.473-2.28 2.698-4.34 3.674-6.181a58.807 58.807 0 0 0-6.447-6.415c-1.851.962-3.92 2.184-6.204 3.65.509 2.34.978 4.86 1.407 7.53 2.675.428 5.207.897 7.57 1.416z"/><path fill="#006241" d="M22.534 12.458a10.923 10.923 0 0 1 7.612 3.17l.103.015c-.43-2.67-.9-5.19-1.408-7.53a140.756 140.756 0 0 0-6.33 4.333l.023.014"/><path fill="#00A650" d="M22.535 12.459a.333.333 0 0 0-.022-.015l-.022.015h.044"/><path fill="#00AE42" d="M44.829 18.861c-2-.627-4.347-1.229-7.01-1.803a150.777 150.777 0 0 1-4.354 6.317c1.599 2.2 3.063 4.334 4.383 6.369 2.668-.566 5.013-1.152 7.018-1.762a58.83 58.83 0 0 0-.037-9.12z"/><path fill="#006241" d="M33.448 23.398a10.919 10.919 0 0 1-3.163 7.634c-.007.032-.011.066-.018.1 2.682-.424 5.217-.89 7.58-1.389a145.283 145.283 0 0 0-4.383-6.37c-.004.008-.011.015-.016.024z"/><path fill="#00A650" d="m30.167 31.148.1-.016c.007-.034.01-.068.017-.1-.04.037-.076.077-.117.116z"/><path fill="#006241" d="M30.265 15.744a10.89 10.89 0 0 1 3.183 7.606.212.212 0 0 1 .016.025 150.35 150.35 0 0 0 4.354-6.317c-2.36-.52-4.895-.988-7.57-1.415.007.033.012.068.017.102"/><path fill="#00A650" d="M33.448 23.375v.023c.005-.01.012-.017.016-.023a.202.202 0 0 0-.016-.024v.024zm-3.182-7.631-.016-.102a2.678 2.678 0 0 0-.103-.015c.041.038.079.079.12.117z"/></svg>